<svg id="Capa_1" enable-background="new 0 0 512 512" height="512" viewBox="0 0 512 512" width="512" xmlns="http://www.w3.org/2000/svg"><g><path d="m203.3 296.5h-14.7v-80.9h14.7z"/><path d="m267.7 296.5h-14.3v-6c-4 4.9-10 7.7-16.4 7.4-15.1 0-26.4-12.3-26.4-28.7s11.4-28.7 26.4-28.7c6.3-.2 12.4 2.6 16.4 7.5v-6h14.3zm-42-27.3c0 8.3 5.5 15.1 14 15.1 8.6 0 14-6.4 14-15.1s-5.7-15.1-14-15.1-13.9 6.8-13.9 15.1z"/><path d="m340.9 224.1c0 5.2-4.2 9.3-9.4 9.3s-9.3-4.2-9.3-9.3c0-5.2 4.2-9.4 9.3-9.4 5.2.1 9.4 4.3 9.4 9.4zm-2 72.4h-14.8v-54.5h14.8z"/><path id="_Trazado_" d="m181.3 229.5c-3.3-1.5-6.8-2.1-10.4-1.8-4.2.5-6.4 2.6-6.4 7.7v6.6h16.9v13h-16.9v41.6h-14.7v-41.6h-10.1v-13h10.1v-6.9c0-12.9 6.8-21.2 19.5-21.2 4.1-.1 8.3.7 12.1 2.3z"/><path d="m305.3 284.3c-4.5 0-8.2-2.5-8.2-9.2v-20h19.7v-13h-19.7v-16.2h-14.7v16.2h-7.4v13h7.4v21c0 14.2 6.9 21.8 20.4 21.8 4.9.1 9.7-1 14-3.2l-5.6-11.8c-1.8.8-3.9 1.3-5.9 1.4z"/><path d="m453 269.2c0 16.4-12.6 28.7-29.5 28.7s-29.5-12.2-29.5-28.7 12.5-28.7 29.5-28.7c17.1 0 29.5 12.3 29.5 28.7zm-44 0c0 8.8 6.2 15.1 14.4 15.1s14.5-6.2 14.5-15.1-6.2-15.1-14.5-15.1-14.3 6.2-14.3 15.1z"/><path d="m512 261.8v34.7h-14.8v-30c0-7.9-3.9-12.2-10.6-12.2-6.8 0-11.6 4.2-11.6 12.3v29.9h-14.5v-54.5h14.3v6.4c3.9-5.8 9.9-7.9 16-7.9 12.4 0 21.2 8.7 21.2 21.3z"/><path d="m387 278.7c-2.7 3.1-6.5 5.1-10.6 5.5h-1.2l-2.3-.3c-4.2-.7-7.8-3.4-9.6-7.3-1.1-2.4-1.6-4.9-1.6-7.5 0-2.7.5-5.3 1.7-7.7 1.9-3.8 5.5-6.5 9.7-7.1h3.1c4.2.3 8.1 2.2 10.8 5.5l7.1-12.5c-3-2.7-6.6-4.6-10.5-5.6-2.6-.7-5.2-1-7.9-1-3.3 0-6.6.5-9.7 1.4-3.9 1.2-7.4 3.2-10.4 6-5.8 5.5-9 13.3-8.8 21.3-.2 8 3 15.6 8.7 21.2 3 2.7 6.5 4.8 10.4 6 3.2 1 6.6 1.6 10 1.6 2.7 0 5.4-.3 8.1-1 3.9-1.1 7.5-3 10.5-5.7z"/><path d="m60.1 240.8h-25.2l-7.9-13.7h41l12-20.8h-67.8c-4.3 0-8.4 2.3-10.5 6.1-2.2 3.8-2.2 8.4 0 12.2l43.2 74.9c3.4 5.8 10.9 7.7 16.7 4.3 1.8-1.1 3.3-2.5 4.3-4.3l1.4-2.5-19.9-34.5z"/><path d="m109.3 212.4c-2.2-3.8-6.2-6.1-10.5-6.1h-3l-32.5 56.2 11.9 20.8 34-58.8c2.3-3.7 2.3-8.3.1-12.1z"/></g></svg>