<?xml version="1.0" standalone="no"?>
<!DOCTYPE svg PUBLIC "-//W3C//DTD SVG 20010904//EN"
 "http://www.w3.org/TR/2001/REC-SVG-20010904/DTD/svg10.dtd">
<svg version="1.0" xmlns="http://www.w3.org/2000/svg"
 width="512.000000pt" height="512.000000pt" viewBox="0 0 512.000000 512.000000"
 preserveAspectRatio="xMidYMid meet">
<metadata>
Created by potrace 1.11, written by Peter Selinger 2001-2013
</metadata>
<g transform="translate(0.000000,512.000000) scale(0.100000,-0.100000)"
fill="#000000" stroke="none">
<path d="M388 5103 c-187 -38 -329 -179 -368 -367 -42 -203 64 -417 253 -509
104 -52 196 -63 307 -39 318 70 472 440 294 707 -42 63 -59 82 -111 123 -105
82 -239 113 -375 85z"/>
<path d="M4515 5027 c-74 -24 -105 -82 -105 -195 l0 -78 -77 0 c-132 2 -198
-48 -198 -149 0 -100 60 -148 189 -150 l81 -1 5 -91 c4 -72 10 -98 26 -120 56
-75 157 -88 222 -29 38 34 46 56 52 151 l5 89 81 1 c89 1 131 18 168 68 29 39
29 125 0 164 -38 51 -83 69 -173 67 l-81 -1 0 78 c0 43 -5 90 -11 106 -28 74
-110 114 -184 90z"/>
<path d="M2527 4630 c-73 -14 -127 -98 -113 -174 22 -117 177 -160 255 -71 96
110 2 274 -142 245z"/>
<path d="M3232 4307 c-58 -18 -87 -63 -116 -184 -14 -59 -46 -193 -71 -298
-25 -104 -47 -199 -49 -210 -3 -11 -22 -94 -45 -185 -33 -136 -188 -781 -195
-815 -33 -147 -31 -177 15 -230 27 -31 41 -37 105 -49 29 -6 97 27 122 58 14
18 38 99 73 244 113 472 138 578 143 602 2 14 23 102 46 195 22 94 58 244 80
335 92 383 95 398 79 443 -26 75 -109 117 -187 94z"/>
<path d="M2032 3746 c-42 -12 -89 -65 -98 -111 -3 -20 3 -98 16 -182 12 -82
23 -161 25 -178 2 -16 7 -48 10 -70 4 -22 8 -51 10 -65 3 -14 7 -45 10 -70 3
-25 7 -54 9 -65 2 -12 8 -48 12 -80 4 -33 8 -62 9 -65 1 -3 5 -34 9 -70 5 -36
10 -72 11 -80 7 -38 20 -130 30 -200 13 -98 38 -137 105 -162 38 -15 49 -15
97 -4 40 9 90 65 98 109 4 19 -1 85 -10 148 -28 193 -33 228 -40 289 -3 25 -8
52 -10 60 -2 8 -7 40 -10 70 -3 30 -8 62 -10 70 -2 8 -7 42 -10 75 -4 32 -8
62 -10 65 -2 3 -6 34 -10 70 -4 36 -8 67 -10 70 -2 3 -6 34 -10 70 -3 35 -8
67 -10 70 -1 3 -6 31 -9 63 -11 96 -32 134 -90 164 -36 19 -71 22 -114 9z"/>
<path d="M3858 3737 c-60 -32 -83 -67 -83 -132 0 -148 179 -203 269 -82 29 39
29 125 0 164 -47 63 -121 83 -186 50z"/>
<path d="M582 3420 c-72 -32 -106 -105 -84 -178 9 -29 120 -146 517 -542 535
-535 533 -534 613 -522 48 7 108 67 117 116 16 82 20 77 -513 610 -275 275
-511 505 -525 513 -41 21 -82 22 -125 3z"/>
<path d="M4290 2873 c-8 -2 -24 -8 -35 -13 -11 -5 -234 -98 -495 -206 -294
-122 -486 -206 -503 -222 -53 -50 -60 -140 -15 -197 27 -35 90 -63 129 -59 24
3 252 93 414 164 22 9 168 70 325 135 166 69 297 129 313 144 34 31 52 87 43
135 -9 45 -58 103 -94 110 -52 12 -67 13 -82 9z"/>
<path d="M195 2547 c-102 -33 -136 -160 -64 -242 82 -93 239 -43 256 81 14
105 -92 194 -192 161z"/>
<path d="M937 1804 c-1 -1 -51 -4 -112 -8 -60 -3 -126 -8 -145 -11 -19 -2 -57
-7 -85 -10 -118 -14 -188 -34 -217 -62 -73 -70 -56 -192 32 -238 39 -20 71
-21 170 -7 127 19 146 21 255 28 120 7 108 5 270 44 72 17 146 34 165 36 19 2
42 6 50 9 19 6 77 14 220 29 108 12 456 13 508 2 34 -7 26 2 -15 19 -46 20
-211 76 -236 80 -9 2 -21 6 -25 9 -5 3 -24 8 -43 11 -19 3 -52 10 -74 15 -22
5 -69 13 -105 19 -65 10 -88 13 -210 27 -57 6 -397 13 -403 8z"/>
<path d="M3907 1804 c-1 -1 -47 -5 -102 -8 -108 -8 -110 -8 -230 -26 -153 -22
-365 -83 -505 -144 -34 -15 -34 -15 35 -8 89 9 391 8 470 -2 170 -20 297 -42
443 -77 137 -33 146 -35 285 -44 53 -3 107 -8 120 -10 12 -2 63 -9 112 -15 50
-7 97 -14 105 -15 8 -1 31 4 50 12 102 41 131 156 59 238 -32 36 -100 57 -227
70 -35 4 -71 8 -81 10 -63 12 -523 29 -534 19z"/>
<path d="M1649 1326 c-2 -2 -38 -6 -79 -10 -312 -26 -738 -148 -1110 -316
-121 -55 -173 -87 -191 -121 -5 -11 -41 -145 -80 -297 -38 -152 -73 -278 -78
-280 -31 -10 -78 -52 -93 -82 -44 -87 6 -187 104 -209 28 -7 90 6 309 61 151
39 317 80 369 93 52 13 165 41 250 64 366 94 793 201 804 200 6 0 28 -26 48
-57 53 -82 83 -115 158 -177 144 -118 331 -183 515 -179 44 1 91 4 105 7 132
26 259 79 348 145 66 49 158 148 195 209 17 29 38 53 45 53 8 0 42 -7 76 -16
33 -9 69 -18 79 -19 10 -2 52 -14 95 -25 42 -12 84 -23 92 -25 17 -3 862 -218
1155 -293 208 -53 241 -55 294 -15 84 64 78 189 -12 243 -18 11 -35 21 -40 22
-4 2 -38 127 -76 279 -38 152 -74 286 -80 298 -24 43 -111 92 -321 177 -47 19
-94 39 -105 44 -89 39 -409 135 -545 164 -221 46 -358 61 -555 60 -291 0 -489
-42 -705 -149 l-65 -32 -30 18 c-99 62 -311 128 -495 154 -47 7 -375 16 -381
11z"/>
</g>
</svg>
